<?xml version="1.0" encoding="utf-8"?>
<!-- Generator: Adobe Illustrator 19.0.0, SVG Export Plug-In . SVG Version: 6.00 Build 0)  -->
<svg version="1.1" id="Layer_1" xmlns="http://www.w3.org/2000/svg" xmlns:xlink="http://www.w3.org/1999/xlink" x="0px" y="0px"
	 viewBox="-320 29.3 491.4 491.4" style="enable-background:new -320 29.3 491.4 491.4;" xml:space="preserve">
<style type="text/css">
	.st0{fill:none;stroke:#FFFFFF;stroke-width:8;stroke-miterlimit:10;}
	.st1{fill:none;stroke:#FFFFFF;stroke-width:14;stroke-miterlimit:10;}
</style>
<g id="Layer_3">
</g>
<g id="Layer_1_1_">
</g>
<g>
	<g id="XMLID_2_">
		<path id="Facebook" class="st0" d="M-119.5,170.5c0,8.6,0,47,0,47h-34.4v57.4h34.4v170.6h70.7V274.9h47.4c0,0,4.5-27.5,6.6-57.6
			c-6.2,0-53.7,0-53.7,0s0-33.4,0-39.2c0-5.9,7.7-13.8,15.3-13.8c7.6,0,23.6,0,38.5,0c0-7.8,0-34.9,0-59.8c-19.9,0-42.4,0-52.3,0
			C-121.2,104.5-119.5,162-119.5,170.5z"/>
	</g>
	<circle id="XMLID_1_" class="st1" cx="-74.3" cy="275" r="238.7"/>
</g>
</svg>
