<?xml version="1.0" encoding="utf-8"?>
<!-- Generator: Adobe Illustrator 19.0.0, SVG Export Plug-In . SVG Version: 6.00 Build 0)  -->
<svg version="1.1" xmlns="http://www.w3.org/2000/svg" xmlns:xlink="http://www.w3.org/1999/xlink" x="0px" y="0px"
	 viewBox="0 0 511.9 511.9" style="enable-background:new 0 0 511.9 511.9;" xml:space="preserve">
<style type="text/css">
	.st0{fill:none;stroke:#FFFFFF;stroke-width:14;stroke-miterlimit:0;}
	.st1{fill:none;stroke:#FFFFFF;stroke-width:8;stroke-miterlimit:0;}
</style>
<g id="Layer_2">
	<circle id="XMLID_272_" class="st0" cx="255.9" cy="255.9" r="248.9"/>
</g>
<g id="Layer_1">
	<g id="XMLID_346_">
		<path id="Twitter_2_" class="st1" d="M340.1,323.9h-74.2c-10.3,0-21-5.8-28.2-13c-7.2-7.3-12.8-18.2-12.8-28.6v-22.4h109.6
			c9.5,0,17.7-5.4,24.6-12.2c6.8-6.9,10.2-16.1,10.2-25.6c0-9.6-3.4-16.4-10.3-23.3c-6.8-6.8-15.1-8.9-24.7-8.9H224.9v-58.2
			c0-10.3-1.7-19.2-9-26.5c-7.3-7.4-15.1-11.1-25.3-11.1c-10.5,0-20.9,3.6-28.2,10.9c-7.3,7.2-12.4,16.1-12.4,26.8v150.6
			c0,31,12.9,59.5,34.8,81.5c21.9,22,50.3,35.1,81.2,35.1h74.2c10.3,0,19.1-5.8,26.5-13.2c7.4-7.3,11-17.2,11-27.6
			c0-10.3-3.7-17.5-11-24.9C359.3,326,350.4,323.9,340.1,323.9z"/>
	</g>
</g>
</svg>
